<?xml version="1.0" encoding="utf-8"?>
<!-- Generator: Adobe Illustrator 16.0.0, SVG Export Plug-In . SVG Version: 6.00 Build 0)  -->
<!DOCTYPE svg PUBLIC "-//W3C//DTD SVG 1.1//EN" "http://www.w3.org/Graphics/SVG/1.1/DTD/svg11.dtd">
<svg version="1.1" id="Layer_1" xmlns="http://www.w3.org/2000/svg" xmlns:xlink="http://www.w3.org/1999/xlink" x="0px" y="0px"
	 width="100px" height="100.166px" viewBox="0 0 100 100.166" enable-background="new 0 0 100 100.166" xml:space="preserve">
<g>
	<path fill="#FFFFFF" d="M50.082,5.008c24.855,0,45.077,20.221,45.077,45.073c0,24.856-20.222,45.076-45.077,45.076
		c-24.853,0-45.073-20.22-45.073-45.076C5.009,25.229,25.229,5.008,50.082,5.008 M50.082,0C22.422,0,0,22.422,0,50.082
		c0,27.663,22.422,50.084,50.082,50.084c27.663,0,50.084-22.422,50.084-50.084C100.167,22.422,77.745,0,50.082,0L50.082,0z"/>
	<path fill="#FFFFFF" d="M30.926,50.082c0,3.874-3.139,7.012-7.012,7.012c-3.871,0-7.01-3.139-7.01-7.012
		c0-3.87,3.139-7.009,7.01-7.009C27.788,43.072,30.926,46.211,30.926,50.082z"/>
	<path fill="#FFFFFF" d="M69.239,50.082c0,3.874,3.141,7.012,7.013,7.012c3.871,0,7.01-3.139,7.01-7.012
		c0-3.87-3.139-7.009-7.01-7.009C72.38,43.072,69.239,46.211,69.239,50.082z"/>
	<path fill="#FFFFFF" d="M43.072,50.082c0,3.874,3.139,7.012,7.009,7.012c3.873,0,7.013-3.139,7.013-7.012
		c0-3.87-3.14-7.009-7.013-7.009C46.211,43.072,43.072,46.211,43.072,50.082z"/>
</g>
</svg>
