<?xml version="1.0" encoding="utf-8"?>
<!-- Generator: Adobe Illustrator 16.0.0, SVG Export Plug-In . SVG Version: 6.00 Build 0)  -->
<!DOCTYPE svg PUBLIC "-//W3C//DTD SVG 1.1//EN" "http://www.w3.org/Graphics/SVG/1.1/DTD/svg11.dtd">
<svg version="1.1" id="Layer_1" xmlns="http://www.w3.org/2000/svg" xmlns:xlink="http://www.w3.org/1999/xlink" x="0px" y="0px"
	 width="100px" height="100px" viewBox="0 0 100 100" enable-background="new 0 0 100 100" xml:space="preserve">
<path fill="#FFFFFF" d="M50,0C22.386,0,0,22.386,0,50s22.386,50,50,50s50-22.386,50-50S77.614,0,50,0z M5.092,52.75h19.199
	c0.168,6.012,0.883,11.738,2.05,17H9.577C7.032,64.563,5.46,58.816,5.092,52.75z M52.5,25.75V5.399
	c5.643,1.731,11.316,9.15,14.806,20.351H52.5z M68.65,30.75c1.179,5.105,1.925,10.815,2.07,17H52.5v-17H68.65z M47.5,5.399V25.75
	H32.694C36.184,14.549,41.858,7.13,47.5,5.399z M47.5,30.75v17H29.279c0.146-6.185,0.892-11.895,2.071-17H47.5z M24.279,47.75H5.057
	c0.3-6.057,1.806-11.8,4.278-17H26.23C25.097,36.021,24.417,41.748,24.279,47.75z M29.293,52.75H47.5v17H31.465
	C30.251,64.656,29.472,58.944,29.293,52.75z M47.5,74.75v19.851c-5.557-1.704-11.142-8.932-14.644-19.851H47.5z M52.5,94.601V74.75
	h14.644C63.642,85.669,58.057,92.896,52.5,94.601z M52.5,69.75v-17h18.207c-0.179,6.194-0.958,11.906-2.172,17H52.5z M75.71,52.75
	h19.198c-0.368,6.066-1.939,11.813-4.484,17H73.659C74.826,64.488,75.542,58.762,75.71,52.75z M75.721,47.75
	c-0.137-6.002-0.817-11.729-1.951-17h16.896c2.472,5.2,3.979,10.943,4.278,17H75.721z M87.877,25.75H72.519
	c-2.226-7.777-5.488-14.277-9.426-18.802C73.412,10.093,82.162,16.855,87.877,25.75z M36.908,6.948
	c-3.938,4.525-7.201,11.024-9.427,18.802H12.123C17.837,16.855,26.588,10.093,36.908,6.948z M12.444,74.75h15.186
	c2.222,7.555,5.426,13.875,9.279,18.302C26.781,89.966,18.163,83.398,12.444,74.75z M63.093,93.052
	c3.853-4.427,7.057-10.747,9.278-18.302h15.186C81.838,83.398,73.219,89.966,63.093,93.052z"/>
</svg>
