<?xml version="1.0" encoding="utf-8"?>
<!-- Generator: Adobe Illustrator 16.0.0, SVG Export Plug-In . SVG Version: 6.00 Build 0)  -->
<!DOCTYPE svg PUBLIC "-//W3C//DTD SVG 1.1//EN" "http://www.w3.org/Graphics/SVG/1.1/DTD/svg11.dtd">
<svg version="1.1" id="Layer_1" xmlns="http://www.w3.org/2000/svg" xmlns:xlink="http://www.w3.org/1999/xlink" x="0px" y="0px"
	 width="100px" height="100px" viewBox="0 0 100 100" enable-background="new 0 0 100 100" xml:space="preserve">
<path d="M75,71v6c0,4.411-3.589,8-8,8H13c-4.411,0-8-3.589-8-8V23c0-4.411,3.589-8,8-8h54c4.411,0,8,3.589,8,8v6h5v-6
	c0-7.18-5.82-13-13-13H13C5.82,10,0,15.82,0,23v54c0,7.18,5.82,13,13,13h54c7.18,0,13-5.82,13-13v-6H75z"/>
<g>
	<path d="M70.812,57.273L98.625,29.46c1.562-1.562,1.562-4.095,0-5.657c-1.563-1.562-4.096-1.562-5.657,0L65.155,51.616
		L70.812,57.273z"/>
	<polygon points="69.516,58.568 69.516,58.568 63.859,52.913 60.205,62.223 	"/>
</g>
<g>
	<g>
		<path d="M59.334,31.583H16.167c-1.381,0-2.5-1.119-2.5-2.5s1.119-2.5,2.5-2.5h43.167c1.381,0,2.5,1.119,2.5,2.5
			S60.715,31.583,59.334,31.583z"/>
	</g>
	<g>
		<path d="M50.701,52.5H16.167c-1.381,0-2.5-1.119-2.5-2.5c0-1.381,1.119-2.5,2.5-2.5h34.534c1.38,0,2.5,1.119,2.5,2.5
			C53.2,51.381,52.081,52.5,50.701,52.5z"/>
	</g>
	<g>
		<path d="M43.794,73.416H16.167c-1.381,0-2.5-1.119-2.5-2.5s1.119-2.5,2.5-2.5h27.627c1.381,0,2.5,1.119,2.5,2.5
			S45.175,73.416,43.794,73.416z"/>
	</g>
</g>
</svg>
