<?xml version="1.0" encoding="utf-8"?>
<!-- Generator: Adobe Illustrator 16.0.0, SVG Export Plug-In . SVG Version: 6.00 Build 0)  -->
<!DOCTYPE svg PUBLIC "-//W3C//DTD SVG 1.1//EN" "http://www.w3.org/Graphics/SVG/1.1/DTD/svg11.dtd">
<svg version="1.1" id="Layer_1" xmlns="http://www.w3.org/2000/svg" xmlns:xlink="http://www.w3.org/1999/xlink" x="0px" y="0px"
	 width="100px" height="100px" viewBox="0 0 100 100" enable-background="new 0 0 100 100" xml:space="preserve">
<path d="M50,5c24.813,0,45,15.701,45,35c0,14.12-10.857,26.792-27.661,32.283l-1.754,0.573l-0.961,1.576
	c-2.02,3.311-4.33,6.122-6.737,8.502c0.194-0.521,0.369-1.028,0.526-1.517l2.245-6.952l-7.293,0.425
	c-1.287,0.074-2.356,0.109-3.365,0.109c-24.813,0-45-15.701-45-35C5,20.701,25.187,5,50,5 M50,0C22.386,0,0,17.909,0,40
	c0,22.091,22.386,40,50,40c1.23,0,2.446-0.048,3.655-0.118C51.77,85.721,47.5,93.289,37.927,100c0,0,19.515-4.188,30.966-22.965
	C87.138,71.072,100,56.741,100,40C100,17.909,77.614,0,50,0L50,0z"/>
</svg>
