<?xml version="1.0" encoding="utf-8"?>
<!-- Generator: Adobe Illustrator 16.0.0, SVG Export Plug-In . SVG Version: 6.00 Build 0)  -->
<!DOCTYPE svg PUBLIC "-//W3C//DTD SVG 1.1//EN" "http://www.w3.org/Graphics/SVG/1.1/DTD/svg11.dtd">
<svg version="1.1" id="Layer_1" xmlns="http://www.w3.org/2000/svg" xmlns:xlink="http://www.w3.org/1999/xlink" x="0px" y="0px"
	 width="100px" height="100px" viewBox="0 0 100 100" enable-background="new 0 0 100 100" xml:space="preserve">
<path d="M62.26,83.515c-0.604,0-1.17-0.234-1.596-0.659c-0.88-0.88-0.88-2.312,0-3.191L88.053,52.25H5.5
	c-1.241,0-2.25-1.01-2.25-2.25c0-1.241,1.009-2.25,2.25-2.25h82.585L60.644,20.334c-0.424-0.424-0.658-0.991-0.658-1.594
	s0.234-1.17,0.659-1.595c0.426-0.425,0.992-0.66,1.596-0.66s1.17,0.234,1.596,0.66l31.25,31.25c0.425,0.425,0.659,0.992,0.659,1.595
	s-0.234,1.17-0.659,1.596l-2.829,2.828l0.02,0.02L63.855,82.855C63.43,83.28,62.863,83.515,62.26,83.515z"/>
</svg>
