<?xml version="1.0" encoding="utf-8"?>
<!-- Generator: Adobe Illustrator 16.0.0, SVG Export Plug-In . SVG Version: 6.00 Build 0)  -->
<!DOCTYPE svg PUBLIC "-//W3C//DTD SVG 1.1//EN" "http://www.w3.org/Graphics/SVG/1.1/DTD/svg11.dtd">
<svg version="1.1" id="Layer_1" xmlns="http://www.w3.org/2000/svg" xmlns:xlink="http://www.w3.org/1999/xlink" x="0px" y="0px"
	 width="100px" height="100px" viewBox="0 0 100 100" enable-background="new 0 0 100 100" xml:space="preserve">
<g>
	<path d="M50,5c16.542,0,30,13.458,30,30c0,22.893-21.392,48.426-29.98,57.754C41.436,83.342,20,57.574,20,35
		C20,18.458,33.458,5,50,5 M50,0C30.67,0,15,15.67,15,35c0,30.5,35,65,35,65s35-34,35-65C85,15.67,69.33,0,50,0L50,0z"/>
	<path d="M50,20c8.271,0,15,6.729,15,15s-6.729,15-15,15c-8.271,0-15-6.729-15-15S41.729,20,50,20 M50,15c-11.046,0-20,8.954-20,20
		s8.954,20,20,20s20-8.954,20-20S61.046,15,50,15L50,15z"/>
</g>
</svg>
