<?xml version="1.0" encoding="utf-8"?>
<!-- Generator: Adobe Illustrator 16.0.0, SVG Export Plug-In . SVG Version: 6.00 Build 0)  -->
<!DOCTYPE svg PUBLIC "-//W3C//DTD SVG 1.1//EN" "http://www.w3.org/Graphics/SVG/1.1/DTD/svg11.dtd">
<svg version="1.1" id="Layer_1" xmlns="http://www.w3.org/2000/svg" xmlns:xlink="http://www.w3.org/1999/xlink" x="0px" y="0px"
	 width="440px" height="160px" viewBox="0 0 440 160" enable-background="new 0 0 440 160" xml:space="preserve">
<path fill="#E8340D" d="M441.096,144.256L440,139.571c0,0-15.314-19.84-39.391-44.558c22.044-23.558,32.152-44.49,32.152-44.49
	l-19.523-3.81c0,0-9.941,14.953-29.771,31.397C343.909,40.677,289.34,0,238.952,0c-35.964,0-73.765,23.758-106.649,52.963
	C110.359,32.54,93.122,12.293,83.294,0H1.095v0.156C13.972,15.716,48.542,55.45,93.861,91.409C61.534,127.266,39.905,160,39.905,160
	h22.91c7.966-8.839,27.55-30.081,51.852-52.953C156.119,136.443,204.304,160,252.286,160c45.485,0,81.467-13.912,108.95-31.813
	C374.51,146.503,382.762,160,382.762,160h58.334V144.256z M266.571,120.523c-39.902,0-79.324-22.121-111.995-48.276
	c30.103-23.939,61.638-43.152,85.328-43.152c34.442,0,74.031,39.305,102.787,74.84C321.897,113.569,296.524,120.523,266.571,120.523
	z"/>
</svg>
